<svg width="140" height="48" viewBox="0 0 140 48" fill="none" xmlns="http://www.w3.org/2000/svg">
<g clip-path="url(#clip0_202_14892)">
<path d="M128.851 0.569976H11.155C10.726 0.569976 10.3021 0.569976 9.87425 0.572309C9.51607 0.574643 9.16075 0.581421 8.79913 0.587126C8.01353 0.596345 7.22978 0.665265 6.45469 0.793288C5.68068 0.924097 4.93092 1.17071 4.23077 1.52479C3.53147 1.88186 2.8925 2.34584 2.33704 2.89989C1.77867 3.45239 1.31322 4.091 0.958592 4.79116C0.602988 5.48994 0.356412 6.23874 0.227378 7.0117C0.097118 7.78369 0.0270238 8.56458 0.0177246 9.34737C0.00686756 9.70507 0.00572102 10.064 0 10.4217V37.3883C0.00572102 37.7506 0.00686756 38.1015 0.0177246 38.4639C0.0270266 39.2466 0.0971208 40.0275 0.227378 40.7994C0.356055 41.5729 0.602647 42.3221 0.958592 43.0211C1.31306 43.719 1.77857 44.3551 2.33704 44.9045C2.89039 45.461 3.52978 45.9253 4.23077 46.2796C4.93092 46.6347 5.68059 46.8827 6.45469 47.0156C7.22991 47.1426 8.01358 47.2115 8.79913 47.2218C9.16075 47.2298 9.51607 47.2343 9.87425 47.2343C10.3021 47.2366 10.726 47.2366 11.155 47.2366H128.851C129.272 47.2366 129.699 47.2366 130.119 47.2343C130.476 47.2343 130.842 47.2298 131.198 47.2218C131.982 47.2121 132.764 47.1431 133.538 47.0156C134.315 46.8818 135.067 46.6338 135.77 46.2796C136.471 45.9251 137.11 45.4608 137.662 44.9045C138.219 44.3529 138.686 43.7173 139.045 43.0211C139.398 42.3216 139.642 41.5724 139.769 40.7994C139.9 40.0274 139.972 39.2467 139.986 38.4639C139.991 38.1015 139.991 37.7506 139.991 37.3883C140 36.9645 140 36.543 140 36.1122V11.6955C140 11.2682 140 10.8444 139.991 10.4217C139.991 10.064 139.991 9.70507 139.986 9.34732C139.972 8.56447 139.9 7.78375 139.769 7.01166C139.642 6.23914 139.398 5.4904 139.045 4.79112C138.323 3.3877 137.178 2.24534 135.77 1.52468C135.067 1.17147 134.314 0.924923 133.538 0.793183C132.764 0.664596 131.982 0.595652 131.198 0.586963C130.842 0.581269 130.476 0.574433 130.119 0.572158C129.699 0.569824 129.272 0.569824 128.851 0.569824V0.569976Z" fill="#A6A6A6"/>
<path d="M9.87995 46.2158C9.52349 46.2158 9.17565 46.2113 8.82199 46.2033C8.08935 46.1938 7.35842 46.1302 6.6352 46.0131C5.96083 45.8972 5.30756 45.6818 4.69691 45.3738C4.09187 45.0684 3.54002 44.668 3.0625 44.1878C2.57808 43.7133 2.17477 43.1629 1.86856 42.5586C1.55898 41.9502 1.34474 41.2982 1.23329 40.6252C1.11293 39.902 1.04781 39.1707 1.03849 38.4377C1.03107 38.1916 1.02136 37.3724 1.02136 37.3724V10.4217C1.02136 10.4217 1.0317 9.61507 1.03855 9.37809C1.04747 8.64622 1.11221 7.91608 1.23221 7.19401C1.34387 6.51911 1.55828 5.86519 1.86803 5.25489C2.17311 4.65092 2.57417 4.10016 3.05568 3.62395C3.53665 3.14321 4.09026 2.74069 4.69634 2.43107C5.30558 2.1241 5.95762 1.91017 6.63063 1.79647C7.35622 1.67813 8.08968 1.61415 8.82486 1.60507L9.88053 1.59082H130.114L131.182 1.60564C131.911 1.61427 132.637 1.67768 133.356 1.79533C134.036 1.91046 134.695 2.12587 135.311 2.43448C136.525 3.05847 137.513 4.04568 138.137 5.25774C138.441 5.86383 138.652 6.51241 138.763 7.18148C138.884 7.90948 138.952 8.64535 138.966 9.38322C138.969 9.71362 138.969 10.0685 138.969 10.4217C138.979 10.8592 138.979 11.2756 138.979 11.6955V36.1123C138.979 36.5361 138.979 36.9497 138.969 37.3667C138.969 37.7461 138.969 38.0936 138.965 38.4513C138.951 39.176 138.884 39.8987 138.765 40.6137C138.656 41.2916 138.443 41.9488 138.133 42.5621C137.825 43.1599 137.424 43.7055 136.945 44.1787C136.467 44.6615 135.914 45.0643 135.308 45.3716C134.693 45.6819 134.035 45.8982 133.356 46.0131C132.633 46.1308 131.902 46.1945 131.169 46.2033C130.827 46.2113 130.468 46.2158 130.12 46.2158L128.851 46.2182L9.87995 46.2158Z" fill="black"/>
<path d="M28.9781 24.2537C28.9907 23.28 29.2501 22.3252 29.7321 21.4783C30.2142 20.6313 30.9032 19.9197 31.7352 19.4097C31.2067 18.657 30.5094 18.0376 29.6989 17.6006C28.8883 17.1636 27.9867 16.9211 27.0657 16.8924C25.1011 16.6867 23.1965 18.0647 22.1954 18.0647C21.1749 18.0647 19.6335 16.9128 17.9737 16.9469C16.9 16.9814 15.8537 17.2928 14.9366 17.8505C14.0195 18.4082 13.2629 19.1934 12.7406 20.1294C10.4779 24.0359 12.1657 29.7771 14.3331 32.9348C15.4175 34.481 16.6849 36.2082 18.3433 36.147C19.966 36.0799 20.5721 35.1151 22.5309 35.1151C24.4716 35.1151 25.0402 36.147 26.7322 36.108C28.4735 36.0798 29.5706 34.5549 30.617 32.994C31.3962 31.8923 31.9957 30.6746 32.3935 29.3861C31.3818 28.9594 30.5185 28.2452 29.9112 27.3325C29.3038 26.4199 28.9793 25.3491 28.9781 24.2537Z" fill="white"/>
<path d="M25.7823 14.8164C26.7317 13.6798 27.1995 12.219 27.0862 10.744C25.6357 10.8959 24.2958 11.5873 23.3335 12.6802C22.8631 13.2142 22.5027 13.8353 22.2731 14.5082C22.0435 15.1811 21.9492 15.8926 21.9955 16.6019C22.721 16.6093 23.4388 16.4525 24.0947 16.1432C24.7506 15.8339 25.3277 15.3803 25.7823 14.8164Z" fill="white"/>
<path d="M49.4912 32.2329H43.9534L42.6235 36.1488H40.2779L45.5232 21.6611H47.9602L53.2055 36.1488H50.8199L49.4912 32.2329ZM44.5269 30.426H48.9165L46.7526 24.0708H46.692L44.5269 30.426Z" fill="white"/>
<path d="M64.5336 30.8678C64.5336 34.1502 62.7719 36.259 60.1132 36.259C59.4397 36.2942 58.77 36.1395 58.1805 35.8126C57.5911 35.4858 57.1059 35.0001 56.7805 34.411H56.7302V39.6428H54.556V25.5859H56.6605V27.3427H56.7005C57.0409 26.7565 57.5343 26.2733 58.1282 25.9444C58.7221 25.6156 59.3943 25.4535 60.0732 25.4753C62.7615 25.4753 64.5336 27.5945 64.5336 30.8678ZM62.2989 30.8678C62.2989 28.7293 61.1906 27.3233 59.4997 27.3233C57.8385 27.3233 56.7211 28.7589 56.7211 30.8678C56.7211 32.996 57.8385 34.4213 59.4997 34.4213C61.1906 34.4213 62.2989 33.0256 62.2989 30.8678Z" fill="white"/>
<path d="M76.1919 30.8678C76.1919 34.1501 74.4301 36.259 71.7715 36.259C71.098 36.2942 70.4282 36.1395 69.8388 35.8126C69.2494 35.4858 68.7642 35.0001 68.4388 34.411H68.3885V39.6428H66.2142V25.5858H68.3187V27.3427H68.3587C68.6991 26.7565 69.1925 26.2733 69.7864 25.9444C70.3803 25.6156 71.0525 25.4535 71.7315 25.4753C74.4198 25.4753 76.1919 27.5945 76.1919 30.8678ZM73.9571 30.8678C73.9571 28.7293 72.8489 27.3233 71.1579 27.3233C69.4967 27.3233 68.3793 28.7589 68.3793 30.8678C68.3793 32.996 69.4967 34.4213 71.1579 34.4213C72.8489 34.4213 73.9571 33.0256 73.9571 30.8678H73.9571Z" fill="white"/>
<path d="M83.8971 32.1122C84.0582 33.5489 85.4578 34.4922 87.3703 34.4922C89.2029 34.4922 90.5214 33.5488 90.5214 32.2534C90.5214 31.1289 89.7262 30.4556 87.8433 29.9941L85.9605 29.5418C83.2927 28.8992 82.0542 27.6551 82.0542 25.6362C82.0542 23.1365 84.2387 21.4196 87.3406 21.4196C90.4105 21.4196 92.5151 23.1365 92.5859 25.6362H90.3911C90.2597 24.1904 89.0612 23.3177 87.3097 23.3177C85.5583 23.3177 84.3597 24.2007 84.3597 25.4858C84.3597 26.5101 85.1252 27.1128 86.9978 27.5741L88.5985 27.9661C91.5793 28.669 92.8178 29.8631 92.8178 31.9822C92.8178 34.6926 90.6527 36.3902 87.2092 36.3902C83.9873 36.3902 81.8119 34.7325 81.6714 32.1121L83.8971 32.1122Z" fill="white"/>
<path d="M97.5102 23.0873V25.587H99.5245V27.3039H97.5102V33.127C97.5102 34.0316 97.9135 34.4532 98.799 34.4532C99.0381 34.449 99.2768 34.4323 99.5142 34.403V36.1097C99.1161 36.1839 98.7115 36.2175 98.3065 36.21C96.162 36.21 95.3257 35.4067 95.3257 33.3582V27.3039H93.7856V25.587H95.3257V23.0873H97.5102Z" fill="white"/>
<path d="M100.691 30.8689C100.691 27.5455 102.654 25.4572 105.715 25.4572C108.786 25.4572 110.74 27.5455 110.74 30.8689C110.74 34.2015 108.796 36.2807 105.715 36.2807C102.634 36.2807 100.691 34.2014 100.691 30.8689ZM108.524 30.8689C108.524 28.5892 107.476 27.2436 105.715 27.2436C103.953 27.2436 102.906 28.5994 102.906 30.8689C102.906 33.1578 103.953 34.4931 105.715 34.4931C107.476 34.4931 108.524 33.1578 108.524 30.8689H108.524Z" fill="white"/>
<path d="M112.532 25.5858H114.606V27.3836H114.656C114.796 26.8221 115.126 26.3259 115.59 25.9783C116.054 25.6308 116.624 25.4531 117.204 25.4752C117.454 25.4744 117.704 25.5015 117.949 25.5561V27.5841C117.633 27.4877 117.303 27.4435 116.972 27.4531C116.656 27.4403 116.341 27.4959 116.049 27.6159C115.757 27.7359 115.494 27.9176 115.279 28.1485C115.063 28.3794 114.901 28.6539 114.802 28.9534C114.703 29.2528 114.671 29.5701 114.706 29.8833V36.1484H112.532L112.532 25.5858Z" fill="white"/>
<path d="M127.973 33.0473C127.681 34.9648 125.808 36.2807 123.412 36.2807C120.331 36.2807 118.418 34.222 118.418 30.9191C118.418 27.6059 120.341 25.4572 123.321 25.4572C126.251 25.4572 128.094 27.4646 128.094 30.6673V31.4101H120.613V31.5411C120.579 31.9299 120.627 32.3215 120.756 32.69C120.885 33.0584 121.091 33.3954 121.361 33.6783C121.63 33.9613 121.957 34.1839 122.319 34.3312C122.682 34.4786 123.071 34.5474 123.463 34.533C123.976 34.581 124.492 34.4623 124.933 34.1947C125.373 33.927 125.716 33.5246 125.909 33.0473L127.973 33.0473ZM120.623 29.8948H125.919C125.939 29.5453 125.885 29.1955 125.763 28.8674C125.64 28.5394 125.451 28.2401 125.207 27.9883C124.963 27.7366 124.67 27.5379 124.345 27.4046C124.021 27.2714 123.672 27.2065 123.321 27.214C122.967 27.2119 122.616 27.2797 122.288 27.4136C121.961 27.5475 121.663 27.7447 121.412 27.9939C121.161 28.2432 120.962 28.5395 120.827 28.8657C120.692 29.192 120.622 29.5418 120.623 29.8948V29.8948Z" fill="white"/>
<path d="M44.2544 10.7564C44.7103 10.7238 45.1677 10.7925 45.5937 10.9575C46.0197 11.1225 46.4036 11.3797 46.7178 11.7106C47.0321 12.0415 47.2687 12.4378 47.4108 12.871C47.5528 13.3041 47.5967 13.7633 47.5392 14.2154C47.5392 16.4394 46.3338 17.7177 44.2544 17.7177H41.7329V10.7564H44.2544ZM42.8172 16.7333H44.1333C44.4591 16.7527 44.785 16.6994 45.0875 16.5774C45.39 16.4553 45.6613 16.2676 45.8819 16.0277C46.1024 15.7879 46.2665 15.5021 46.3623 15.191C46.4581 14.8799 46.4831 14.5515 46.4355 14.2296C46.4796 13.909 46.4521 13.5826 46.3548 13.2738C46.2576 12.965 46.0931 12.6815 45.873 12.4436C45.653 12.2057 45.3829 12.0192 45.0822 11.8976C44.7814 11.776 44.4574 11.7222 44.1333 11.7402H42.8172V16.7333Z" fill="white"/>
<path d="M48.764 15.0897C48.7309 14.7444 48.7705 14.3961 48.8803 14.067C48.9901 13.7379 49.1676 13.4354 49.4015 13.1787C49.6355 12.9221 49.9206 12.717 50.2386 12.5767C50.5567 12.4364 50.9006 12.3639 51.2484 12.3639C51.5962 12.3639 51.9402 12.4364 52.2582 12.5767C52.5763 12.717 52.8614 12.9221 53.0953 13.1787C53.3292 13.4354 53.5068 13.7379 53.6166 14.067C53.7264 14.3961 53.766 14.7444 53.7328 15.0897C53.7666 15.4353 53.7275 15.7841 53.618 16.1137C53.5085 16.4433 53.331 16.7464 53.097 17.0036C52.8631 17.2607 52.5777 17.4662 52.2593 17.6068C51.941 17.7475 51.5966 17.8201 51.2484 17.8201C50.9002 17.8201 50.5559 17.7475 50.2375 17.6068C49.9191 17.4662 49.6338 17.2607 49.3998 17.0036C49.1658 16.7464 48.9884 16.4433 48.8789 16.1137C48.7694 15.7841 48.7303 15.4353 48.764 15.0897ZM52.6634 15.0897C52.6634 13.9509 52.1504 13.285 51.2501 13.285C50.3464 13.285 49.838 13.9509 49.838 15.0897C49.838 16.2376 50.3464 16.8984 51.2501 16.8984C52.1505 16.8983 52.6634 16.233 52.6634 15.0897H52.6634Z" fill="white"/>
<path d="M60.3377 17.7178H59.2592L58.1704 13.8486H58.0881L57.0039 17.7178H55.9356L54.4835 12.4644H55.538L56.4817 16.473H56.5594L57.6425 12.4644H58.64L59.7231 16.473H59.8053L60.7445 12.4644H61.7842L60.3377 17.7178Z" fill="white"/>
<path d="M63.0055 12.464H64.0063V13.2986H64.084C64.2158 12.9988 64.4381 12.7475 64.7199 12.5798C65.0017 12.412 65.329 12.3361 65.6561 12.3626C65.9125 12.3434 66.1699 12.3819 66.4092 12.4754C66.6486 12.5688 66.8638 12.7148 67.0389 12.9024C67.2141 13.0901 67.3446 13.3146 67.4209 13.5594C67.4972 13.8042 67.5172 14.063 67.4796 14.3165V17.7174H66.4399V14.5769C66.4399 13.7326 66.072 13.3128 65.3031 13.3128C65.1291 13.3047 64.9553 13.3343 64.7938 13.3994C64.6323 13.4645 64.4868 13.5637 64.3673 13.6902C64.2479 13.8166 64.1572 13.9673 64.1016 14.132C64.046 14.2966 64.0267 14.4713 64.0452 14.6441V17.7174H63.0055L63.0055 12.464Z" fill="white"/>
<path d="M69.1363 10.4136H70.176V17.7178H69.1363V10.4136Z" fill="white"/>
<path d="M71.6212 15.0879C71.5881 14.7427 71.6278 14.3943 71.7376 14.0652C71.8474 13.7361 72.025 13.4336 72.2589 13.1769C72.4928 12.9203 72.778 12.7152 73.0961 12.5749C73.4141 12.4345 73.7581 12.3621 74.1059 12.3621C74.4537 12.3621 74.7977 12.4345 75.1158 12.5749C75.4338 12.7152 75.719 12.9203 75.9529 13.1769C76.1869 13.4336 76.3644 13.7361 76.4743 14.0652C76.5841 14.3943 76.6237 14.7427 76.5906 15.0879C76.6243 15.4335 76.5851 15.7824 76.4756 16.112C76.3661 16.4416 76.1886 16.7447 75.9546 17.0018C75.7206 17.259 75.4352 17.4645 75.1169 17.6051C74.7985 17.7457 74.4541 17.8183 74.1059 17.8183C73.7577 17.8183 73.4133 17.7457 73.095 17.6051C72.7766 17.4645 72.4912 17.259 72.2572 17.0018C72.0232 16.7447 71.8457 16.4416 71.7362 16.112C71.6267 15.7824 71.5875 15.4335 71.6212 15.0879ZM75.5206 15.0879C75.5206 13.9492 75.0076 13.2833 74.1073 13.2833C73.2036 13.2833 72.6952 13.9492 72.6952 15.0879C72.6952 16.2358 73.2036 16.8966 74.1073 16.8966C75.0076 16.8966 75.5206 16.2312 75.5206 15.0879H75.5206Z" fill="white"/>
<path d="M77.6852 16.233C77.6852 15.2874 78.3913 14.7422 79.6446 14.6647L81.0716 14.5827V14.1293C81.0716 13.5744 80.7037 13.2611 79.9931 13.2611C79.4127 13.2611 79.0105 13.4736 78.8951 13.845H77.8886C77.9948 12.9427 78.846 12.3639 80.0411 12.3639C81.3618 12.3639 82.1068 13.0196 82.1068 14.1293V17.7187H81.1059V16.9804H81.0236C80.8567 17.2453 80.6222 17.4611 80.3442 17.6061C80.0662 17.751 79.7546 17.8197 79.4412 17.8053C79.2201 17.8282 78.9966 17.8047 78.7851 17.7362C78.5736 17.6677 78.3789 17.5558 78.2134 17.4077C78.048 17.2595 77.9155 17.0785 77.8245 16.8762C77.7335 16.6738 77.6861 16.4548 77.6852 16.233ZM81.0716 15.7841V15.3449L79.7851 15.427C79.0596 15.4754 78.7306 15.7215 78.7306 16.1846C78.7306 16.6574 79.1419 16.9326 79.7075 16.9326C79.8732 16.9493 80.0406 16.9326 80.1997 16.8835C80.3588 16.8344 80.5064 16.7539 80.6337 16.6467C80.761 16.5396 80.8653 16.408 80.9406 16.2598C81.0158 16.1116 81.0604 15.9498 81.0716 15.7841Z" fill="white"/>
<path d="M83.4732 15.0888C83.4732 13.4288 84.329 12.3772 85.66 12.3772C85.9892 12.3621 86.316 12.4407 86.6021 12.6039C86.8882 12.7671 87.1217 13.0082 87.2755 13.2989H87.3532V10.4136H88.3929V17.7178H87.3966V16.8878H87.3144C87.1487 17.1765 86.907 17.4145 86.6154 17.5761C86.3238 17.7377 85.9934 17.8166 85.66 17.8043C84.3198 17.8044 83.4732 16.7528 83.4732 15.0888ZM84.5472 15.0888C84.5472 16.2031 85.0739 16.8736 85.9548 16.8736C86.8311 16.8736 87.3727 16.1934 87.3727 15.0934C87.3727 13.9985 86.8254 13.3086 85.9548 13.3086C85.0796 13.3086 84.5472 13.9837 84.5472 15.0888H84.5472Z" fill="white"/>
<path d="M92.6945 15.0897C92.6614 14.7444 92.701 14.3961 92.8108 14.067C92.9205 13.7379 93.0981 13.4354 93.332 13.1787C93.5659 12.9221 93.8511 12.717 94.1691 12.5767C94.4872 12.4364 94.8311 12.3639 95.1789 12.3639C95.5267 12.3639 95.8706 12.4364 96.1887 12.5767C96.5067 12.717 96.7919 12.9221 97.0258 13.1787C97.2597 13.4354 97.4373 13.7379 97.547 14.067C97.6568 14.3961 97.6964 14.7444 97.6633 15.0897C97.6971 15.4353 97.6579 15.7841 97.5484 16.1137C97.4389 16.4433 97.2615 16.7464 97.0275 17.0036C96.7935 17.2607 96.5082 17.4662 96.1898 17.6068C95.8715 17.7475 95.5271 17.8201 95.1789 17.8201C94.8307 17.8201 94.4863 17.7475 94.168 17.6068C93.8496 17.4662 93.5643 17.2607 93.3303 17.0036C93.0963 16.7464 92.9189 16.4433 92.8094 16.1137C92.6999 15.7841 92.6607 15.4353 92.6945 15.0897ZM96.5939 15.0897C96.5939 13.9509 96.0809 13.285 95.1806 13.285C94.2769 13.285 93.7685 13.9509 93.7685 15.0897C93.7685 16.2376 94.2769 16.8984 95.1806 16.8984C96.0809 16.8983 96.5939 16.233 96.5939 15.0897Z" fill="white"/>
<path d="M99.0583 12.464H100.059V13.2986H100.137C100.269 12.9988 100.491 12.7475 100.773 12.5798C101.055 12.412 101.382 12.3361 101.709 12.3626C101.965 12.3434 102.223 12.3819 102.462 12.4754C102.701 12.5688 102.917 12.7148 103.092 12.9024C103.267 13.0901 103.397 13.3146 103.474 13.5594C103.55 13.8042 103.57 14.063 103.532 14.3165V17.7174H102.493V14.5769C102.493 13.7326 102.125 13.3128 101.356 13.3128C101.182 13.3047 101.008 13.3343 100.847 13.3994C100.685 13.4645 100.54 13.5637 100.42 13.6902C100.301 13.8166 100.21 13.9673 100.154 14.132C100.099 14.2966 100.08 14.4713 100.098 14.6441V17.7174H99.0583V12.464Z" fill="white"/>
<path d="M109.407 11.1564V12.4882H110.549V13.3615H109.407V16.0629C109.407 16.6132 109.635 16.8541 110.152 16.8541C110.285 16.8537 110.417 16.8457 110.549 16.8302V17.6938C110.362 17.7271 110.173 17.7448 109.983 17.7468C108.827 17.7468 108.366 17.3412 108.366 16.3283V13.3615H107.53V12.4882H108.366V11.1564H109.407Z" fill="white"/>
<path d="M111.969 10.4136H112.999V13.3086H113.082C113.22 13.0061 113.448 12.7534 113.736 12.585C114.023 12.4166 114.356 12.3406 114.688 12.3675C114.943 12.3537 115.198 12.3961 115.435 12.4919C115.671 12.5876 115.884 12.7342 116.057 12.9212C116.23 13.1083 116.36 13.3312 116.437 13.574C116.514 13.8168 116.536 14.0736 116.502 14.326V17.7178H115.462V14.5818C115.462 13.7427 115.07 13.3177 114.335 13.3177C114.156 13.3031 113.977 13.3276 113.808 13.3895C113.64 13.4514 113.488 13.5492 113.361 13.676C113.235 13.8029 113.138 13.9558 113.077 14.1239C113.016 14.2921 112.993 14.4715 113.009 14.6496V17.7178H111.969L111.969 10.4136Z" fill="white"/>
<path d="M122.565 16.2985C122.423 16.7786 122.117 17.1939 121.7 17.4718C121.283 17.7496 120.781 17.8723 120.282 17.8184C119.935 17.8275 119.59 17.7612 119.271 17.6241C118.952 17.487 118.667 17.2823 118.436 17.0243C118.204 16.7663 118.032 16.4612 117.93 16.13C117.829 15.7989 117.801 15.4498 117.848 15.1068C117.802 14.7627 117.83 14.4128 117.932 14.0807C118.033 13.7486 118.204 13.442 118.435 13.1818C118.665 12.9215 118.949 12.7137 119.267 12.5722C119.585 12.4308 119.929 12.3592 120.277 12.3621C121.743 12.3621 122.627 13.3608 122.627 15.0105V15.3723H118.907V15.4304C118.891 15.6231 118.915 15.8172 118.979 16.0001C119.042 16.1829 119.143 16.3506 119.275 16.4923C119.407 16.634 119.568 16.7466 119.746 16.8229C119.924 16.8992 120.116 16.9375 120.31 16.9354C120.559 16.9651 120.811 16.9205 121.034 16.8071C121.257 16.6937 121.442 16.5166 121.564 16.2985L122.565 16.2985ZM118.907 14.6055H121.568C121.581 14.4292 121.557 14.2521 121.498 14.0856C121.438 13.919 121.344 13.7668 121.222 13.6387C121.1 13.5105 120.952 13.4092 120.789 13.3413C120.625 13.2735 120.449 13.2405 120.272 13.2446C120.092 13.2423 119.913 13.276 119.747 13.3436C119.58 13.4112 119.429 13.5113 119.302 13.6382C119.175 13.765 119.074 13.9159 119.006 14.0821C118.939 14.2482 118.905 14.4262 118.907 14.6055H118.907Z" fill="white"/>
</g>
<defs>
<clipPath id="clip0_202_14892">
<rect width="140" height="46.6667" fill="white" transform="translate(0 0.569946)"/>
</clipPath>
</defs>
</svg>
