<svg width="30" height="30" viewBox="0 0 30 30" fill="none" xmlns="http://www.w3.org/2000/svg">
<path d="M21.7706 10.52C20.5321 9.55999 19.0459 9.08001 17.4771 9L17.2294 9.24002C18.633 9.55999 19.8716 10.2 21.0275 11.08C19.6239 10.36 18.055 9.88001 16.4036 9.72C15.9083 9.63999 15.4954 9.63999 15 9.63999C14.5046 9.63999 14.0918 9.63999 13.5964 9.72C11.9449 9.88001 10.3761 10.36 8.97247 11.08C10.1284 10.2 11.367 9.55999 12.7706 9.24002L12.5229 9C10.9541 9.08001 9.46786 9.55999 8.22935 10.52C6.82569 13.0801 6.08256 15.9601 6 18.9199C7.23851 20.1999 8.97247 21.0001 10.789 21.0001C10.789 21.0001 11.367 20.3601 11.7798 19.7999C10.7064 19.5601 9.71559 18.9999 9.05505 18.1201C9.63301 18.4399 10.211 18.7601 10.789 18.9999C11.5321 19.3199 12.2752 19.4801 13.0184 19.6401C13.6789 19.7199 14.3395 19.7999 15 19.7999C15.6605 19.7999 16.3211 19.7199 16.9816 19.6401C17.7248 19.4801 18.4679 19.3199 19.211 18.9999C19.789 18.7601 20.367 18.4399 20.9449 18.1201C20.2844 18.9999 19.2935 19.5601 18.2201 19.7999C18.633 20.3601 19.211 21.0001 19.211 21.0001C21.0275 21.0001 22.7615 20.1999 24 18.9199C23.9174 15.9601 23.1743 13.0801 21.7706 10.52ZM12.2753 17.4799C11.4496 17.4799 10.7064 16.7599 10.7064 15.8801C10.7064 15.0001 11.4496 14.2801 12.2753 14.2801C13.1009 14.2801 13.844 15.0001 13.844 15.8801C13.844 16.7599 13.1009 17.4799 12.2753 17.4799ZM17.7248 17.4799C16.899 17.4799 16.1559 16.7599 16.1559 15.8801C16.1559 15.0001 16.899 14.2801 17.7248 14.2801C18.5504 14.2801 19.2935 15.0001 19.2935 15.8801C19.2935 16.7599 18.5504 17.4799 17.7248 17.4799Z" fill="white"/>
</svg>
