<svg width="21" height="21" viewBox="0 0 21 21" fill="none" xmlns="http://www.w3.org/2000/svg">
<path d="M20.2494 16.9673C20.1662 17.3709 20.0096 17.7325 19.6846 18.0091C19.3441 18.3 18.9477 18.4086 18.5092 18.4086C14.4943 18.4086 10.4793 18.4086 6.46407 18.4086C5.14027 18.4086 3.81664 18.4086 2.49319 18.4086C1.79997 18.4086 1.26079 18.1197 0.961424 17.4866C0.853209 17.2519 0.796655 16.9967 0.795564 16.7383C0.785294 12.9986 0.783412 9.25958 0.789916 5.52124C0.789916 4.53219 1.5006 3.852 2.51219 3.852C7.19837 3.852 11.8847 3.852 16.5712 3.852C17.2172 3.852 17.8637 3.86275 18.5092 3.852C19.4176 3.83305 20.1072 4.43692 20.2232 5.2257C20.2294 5.24975 20.238 5.27309 20.2489 5.29536L20.2494 16.9673ZM2.24157 4.67817C2.2996 4.73912 2.31603 4.75858 2.33452 4.77548C4.85613 7.07012 7.37826 9.36424 9.90091 11.6579C10.3251 12.0425 10.7297 12.0302 11.1651 11.6338C13.6553 9.36987 16.1449 7.10563 18.634 4.84105C18.6828 4.80195 18.7343 4.76618 18.788 4.734L18.7546 4.67817H2.24157ZM12.3862 11.6266C12.1295 11.8561 11.9215 12.0471 11.7089 12.2361C11.4306 12.484 11.123 12.673 10.7436 12.7258C10.1859 12.8031 9.72888 12.5972 9.32579 12.2336L8.65157 11.6261L2.23284 17.5261L2.26468 17.5804H18.7716L18.8008 17.524L12.3862 11.6266ZM1.65413 5.25541C1.56376 5.55761 1.57762 16.789 1.6567 16.9586L8.04872 11.0755C5.92695 9.14348 3.79559 7.20261 1.65465 5.25285L1.65413 5.25541ZM12.9916 11.0755L19.3945 16.9657C19.4782 16.6922 19.4612 5.4567 19.3724 5.26514L12.9916 11.0755Z" fill="#7F7F7F"/>
</svg>
