<svg width="140" height="42" viewBox="0 0 140 42" fill="none" xmlns="http://www.w3.org/2000/svg">
<g clip-path="url(#clip0_202_14830)">
<path d="M134.608 41.5699H5.29136C2.44641 41.5699 0.118713 39.2383 0.118713 36.3886V5.30027C0.118713 2.4505 2.44641 0.118881 5.29136 0.118881H134.608C137.453 0.118881 139.78 2.4505 139.78 5.30027V36.3886C139.78 39.2383 137.453 41.5699 134.608 41.5699Z" fill="black"/>
<path d="M134.608 0.118881H5.29136C2.44641 0.118881 0.118713 2.4505 0.118713 5.30027V36.3886C0.118713 39.2383 2.44641 41.5699 5.29136 41.5699H134.608C137.453 41.5699 139.78 39.2383 139.78 36.3886V5.30027C139.78 2.4505 137.453 0.118881 134.608 0.118881ZM134.608 0.947903C137.004 0.947903 138.953 2.90067 138.953 5.30027V36.3886C138.953 38.7886 137.004 40.7413 134.608 40.7413H5.29136C2.89581 40.7413 0.946338 38.7886 0.946338 36.3886V5.30027C0.946338 2.90067 2.89581 0.947903 5.29136 0.947903H134.608Z" fill="#A6A6A6"/>
<path d="M49.1744 10.7338C49.1744 11.602 48.9178 12.2934 48.4037 12.8091C47.8198 13.4224 47.0588 13.7292 46.1233 13.7292C45.2274 13.7292 44.4657 13.4184 43.8393 12.7958C43.2117 12.1736 42.8986 11.4021 42.8986 10.4816C42.8986 9.56062 43.2117 8.78952 43.8393 8.16693C44.4657 7.54475 45.2274 7.23345 46.1233 7.23345C46.5678 7.23345 46.9934 7.3205 47.3975 7.49418C47.8016 7.66827 48.1257 7.89936 48.3682 8.18879L47.8226 8.73564C47.4117 8.24382 46.8459 7.99812 46.1233 7.99812C45.4699 7.99812 44.9049 8.22807 44.4281 8.68828C43.9512 9.14901 43.7128 9.74642 43.7128 10.4816C43.7128 11.2167 43.9512 11.8141 44.4281 12.2748C44.9049 12.735 45.4699 12.965 46.1233 12.965C46.8164 12.965 47.3943 12.7338 47.857 12.2708C48.1573 11.9691 48.331 11.5499 48.3774 11.0114H46.1233V10.2646H49.1312C49.1603 10.4269 49.1744 10.5828 49.1744 10.7338Z" fill="white"/>
<path d="M49.1745 10.7339H49.071C49.0702 11.5823 48.8229 12.2413 48.3306 12.736L48.3295 12.7368L48.3291 12.7377C47.7637 13.3298 47.037 13.6245 46.1234 13.6258C45.2513 13.6245 44.5215 13.3266 43.912 12.7226C43.3039 12.1175 43.0032 11.3787 43.0021 10.4817C43.0032 9.58427 43.3039 8.84593 43.912 8.24115C44.5215 7.6368 45.2513 7.33846 46.1234 7.33721C46.5545 7.33721 46.9651 7.42146 47.3567 7.58944C47.7487 7.75866 48.0583 7.98043 48.289 8.25577L48.3683 8.18893L48.2951 8.11566L47.7495 8.66292L47.8227 8.73577L47.9023 8.66945C47.4723 8.15328 46.8686 7.89307 46.1234 7.89462C45.4457 7.8938 44.8496 8.13628 44.3566 8.61401C43.8588 9.09328 43.6086 9.72427 43.6094 10.4817C43.6086 11.2391 43.8588 11.8701 44.3566 12.3494C44.8496 12.8271 45.4457 13.0696 46.1234 13.0688C46.8395 13.07 47.4497 12.8267 47.9302 12.3442C48.2511 12.0219 48.4329 11.5755 48.4806 11.0204L48.4903 10.9079H46.2268V10.3683H49.1312V10.2647L49.0293 10.2829C49.0577 10.44 49.071 10.5894 49.071 10.7339H49.1745H49.2779C49.2779 10.5764 49.2634 10.4145 49.233 10.2461L49.2177 10.1611H46.0199V11.0115V11.1152H48.3775V11.0115L48.2745 11.0026C48.2288 11.5241 48.0631 11.9167 47.7839 12.1977C47.3393 12.6413 46.7938 12.8603 46.1234 12.8615C45.4941 12.8607 44.9603 12.6437 44.5001 12.2005C44.0443 11.7588 43.8175 11.195 43.8163 10.4817C43.8175 9.76842 44.0443 9.20458 44.5001 8.76292C44.9603 8.31971 45.4941 8.10271 46.1234 8.10188C46.8229 8.10354 47.3511 8.33504 47.7435 8.80261L47.8163 8.88924L48.4414 8.26219L48.5085 8.19504L48.4474 8.1225C48.1932 7.81898 47.8546 7.57804 47.4383 7.39918C47.0213 7.2198 46.5812 7.12996 46.1234 7.12996C45.2037 7.12913 44.41 7.45296 43.7662 8.0938C43.12 8.73339 42.7943 9.53733 42.7952 10.4817C42.7943 11.4256 43.12 12.23 43.7666 12.87C44.41 13.5104 45.2037 13.8338 46.1234 13.833C47.0811 13.8338 47.8756 13.5152 48.4786 12.8809L48.4038 12.8093L48.4769 12.8825C49.0128 12.3462 49.2787 11.6216 49.2779 10.7339H49.1745Z" fill="white"/>
<path d="M53.9429 8.13663H51.1162V10.108H53.6654V10.8552H51.1162V12.8266H53.9429V13.5905H50.3193V7.37279H53.9429V8.13663Z" fill="white"/>
<path d="M53.9429 8.13664V8.03302H51.0127V10.2117H53.5619V10.7513L51.0127 10.7516V12.9303H53.8395V13.4868H50.4227V7.47643H53.8395V8.13664H53.9429V8.03302V8.13664H54.0464V7.3728V7.26918H50.2158V13.6941H54.0464V12.8266V12.723H51.2196V10.9588H53.7688V10.1081V10.0044H51.2196V8.24027H54.0464V8.13664H53.9429Z" fill="white"/>
<path d="M57.3064 13.5905H56.5083V8.13663H54.7746V7.37279H59.0401V8.13663H57.3064V13.5905Z" fill="white"/>
<path d="M57.3064 13.5905V13.4868H56.6117V8.03302H54.878V7.47643H58.9366V8.03302H57.2029V13.5905H57.3064V13.4868V13.5905H57.4099V8.24027H59.1435V7.3728V7.26918H54.6711V8.13664V8.24027H56.4048V13.6941H57.3064H57.4099V13.5905H57.3064Z" fill="white"/>
<path d="M62.1263 13.5905V7.37279H62.9236V13.5905H62.1263Z" fill="white"/>
<path d="M62.1263 13.5905H62.2297V7.47643H62.8201V13.4868H62.1263V13.5905H62.2297H62.1263V13.6941H62.9236H63.027V7.26918H62.1263H62.0228V13.6941H62.1263V13.5905Z" fill="white"/>
<path d="M66.4616 13.5905H65.6634V8.13663H63.9299V7.37279H68.1952V8.13663H66.4616V13.5905Z" fill="white"/>
<path d="M66.4616 13.5905V13.4868H65.7669V8.03302H64.0333V7.47643H68.0918V8.03302H66.3581V13.5905H66.4616V13.4868V13.5905H66.565V8.24027H68.2987V7.3728V7.26918H63.8264V8.13664V8.24027H65.56V13.6941H66.4616H66.565V13.5905H66.4616Z" fill="white"/>
<path d="M72.3075 12.2663C72.767 12.7322 73.3291 12.965 73.9939 12.965C74.6587 12.965 75.2212 12.7322 75.6799 12.2663C76.1397 11.8004 76.3701 11.2049 76.3701 10.4816C76.3701 9.75823 76.1397 9.16269 75.6799 8.69678C75.2212 8.23087 74.6587 7.99812 73.9939 7.99812C73.3291 7.99812 72.767 8.23087 72.3075 8.69678C71.8488 9.16269 71.6185 9.75823 71.6185 10.4816C71.6185 11.2049 71.8488 11.8004 72.3075 12.2663ZM76.2699 12.7869C75.6596 13.4155 74.9007 13.7292 73.9939 13.7292C73.0862 13.7292 72.3277 13.4155 71.7188 12.7869C71.1081 12.159 70.8043 11.3904 70.8043 10.4816C70.8043 9.57274 71.1081 8.80403 71.7188 8.17625C72.3277 7.54754 73.0862 7.23345 73.9939 7.23345C74.8959 7.23345 75.6528 7.5492 76.2658 8.1803C76.8781 8.81139 77.1844 9.57844 77.1844 10.4816C77.1844 11.3904 76.8788 12.159 76.2699 12.7869Z" fill="white"/>
<path d="M72.3075 12.2665L72.234 12.3393C72.7105 12.8239 73.3049 13.07 73.9939 13.0688C74.6825 13.07 75.2778 12.8239 75.7535 12.3393C76.2331 11.8543 76.4743 11.2269 76.4736 10.4817C76.4743 9.7365 76.2331 9.10904 75.7535 8.62406C75.2778 8.1395 74.6825 7.89338 73.9939 7.89462C73.3049 7.89338 72.7105 8.1395 72.234 8.62406C71.7555 9.10904 71.5138 9.7365 71.5151 10.4817C71.5138 11.2269 71.7555 11.8543 72.234 12.3393L72.3075 12.2665L72.3811 12.1936C71.9422 11.7463 71.7228 11.1836 71.722 10.4817C71.7228 9.77982 71.9422 9.21712 72.3811 8.76976C72.824 8.3225 73.3529 8.10312 73.9939 8.10188C74.6344 8.10312 75.1646 8.3225 75.6063 8.76976C76.046 9.21712 76.2654 9.77982 76.2663 10.4817C76.2654 11.1836 76.046 11.7463 75.6063 12.1936C75.1646 12.6409 74.6344 12.8603 73.9939 12.8615C73.3529 12.8603 72.824 12.6409 72.3811 12.1936L72.3075 12.2665ZM76.2699 12.787L76.1959 12.715C75.6027 13.3238 74.8773 13.6245 73.9939 13.6258C73.1101 13.6245 72.3847 13.3238 71.7926 12.715L71.7899 12.7118L71.7926 12.715C71.2007 12.1041 70.9085 11.3674 70.9077 10.4817C70.9085 9.59598 71.2007 8.85929 71.7926 8.24841C72.3847 7.6396 73.1101 7.33845 73.9939 7.33721C74.8716 7.33845 75.5954 7.64084 76.1919 8.25286C76.7859 8.86655 77.0797 9.6021 77.081 10.4817C77.0797 11.3674 76.7867 12.1041 76.1959 12.715L76.2699 12.787L76.3443 12.859C76.9714 12.2138 77.2886 11.4135 77.2879 10.4817C77.2886 9.55515 76.9702 8.75649 76.3401 8.10841C75.7098 7.45783 74.9201 7.12882 73.9939 7.12996C73.0628 7.12882 72.2708 7.45628 71.6444 8.10436V8.10395C71.016 8.74955 70.7 9.54987 70.7008 10.4817C70.7 11.4135 71.016 12.2138 71.6444 12.8594L71.6472 12.8623L71.6444 12.859C72.2708 13.5071 73.0628 13.8338 73.9939 13.833C74.9246 13.8338 75.7166 13.5071 76.3443 12.859L76.2699 12.787Z" fill="white"/>
<path d="M78.3038 13.5905V7.37279H79.2745L82.2912 12.2097H82.3255L82.2912 11.0115V7.37279H83.0893V13.5905H82.2568L79.1007 8.51912H79.0663L79.1007 9.71778V13.5905H78.3038Z" fill="white"/>
<path d="M78.3037 13.5905H78.4072V7.47643H79.217L82.2337 12.3134H82.3254H82.4317L82.3946 11.0099V7.47643H82.9858V13.4868H82.3142L79.158 8.41551H79.0663H78.96L78.9971 9.71945V13.4868H78.3037V13.5905H78.4072H78.3037V13.6941H79.1006H79.2041V9.71614L79.1697 8.51634L79.0663 8.51913V8.62276H79.1006V8.51913L79.0129 8.57426L82.1993 13.6941H83.0892H83.1927V7.26918H82.2911H82.1876V11.0127L82.222 12.2125L82.3254 12.2097V12.1061H82.2911V12.2097L82.3788 12.1547L79.3317 7.26918H78.3037H78.2003V13.6941H78.3037V13.5905Z" fill="white"/>
<path d="M110.747 31.2072H112.678V18.2525H110.747V31.2072ZM128.135 22.9191L125.922 28.5356H125.856L123.559 22.9191H121.479L124.923 30.7692L122.96 35.1357H124.974L130.281 22.9191H128.135ZM117.187 29.7358C116.554 29.7358 115.673 29.4192 115.673 28.6356C115.673 27.6357 116.771 27.2524 117.719 27.2524C118.568 27.2524 118.967 27.4357 119.483 27.6859C119.333 28.8857 118.301 29.7358 117.187 29.7358ZM117.42 22.6356C116.022 22.6356 114.575 23.2525 113.976 24.6192L115.689 25.3357C116.055 24.6192 116.737 24.3856 117.453 24.3856C118.451 24.3856 119.466 24.9859 119.483 26.0526V26.1857C119.133 25.9857 118.385 25.6858 117.47 25.6858C115.623 25.6858 113.742 26.7022 113.742 28.6023C113.742 30.3357 115.257 31.4525 116.953 31.4525C118.252 31.4525 118.967 30.8692 119.417 30.186H119.483V31.1858H121.346V26.2189C121.346 23.9193 119.633 22.6356 117.42 22.6356ZM105.49 24.4961H102.744V20.0555H105.49C106.933 20.0555 107.752 21.2524 107.752 22.2757C107.752 23.2797 106.933 24.4961 105.49 24.4961ZM105.44 18.2525H100.815V31.2072H102.744V26.2991H105.44C107.58 26.2991 109.683 24.7475 109.683 22.2757C109.683 19.8041 107.58 18.2525 105.44 18.2525ZM80.2172 29.7382C78.8836 29.7382 77.767 28.6197 77.767 27.0835C77.767 25.5312 78.8836 24.3958 80.2172 24.3958C81.5339 24.3958 82.5672 25.5312 82.5672 27.0835C82.5672 28.6197 81.5339 29.7382 80.2172 29.7382ZM82.4338 23.6445H82.3671C81.9339 23.127 81.1002 22.6596 80.0504 22.6596C77.8503 22.6596 75.8338 24.5961 75.8338 27.0835C75.8338 29.5544 77.8503 31.4744 80.0504 31.4744C81.1002 31.4744 81.9339 31.0068 82.3671 30.4729H82.4338V31.1072C82.4338 32.7936 81.5339 33.6951 80.0839 33.6951C78.9006 33.6951 78.1672 32.8434 77.8669 32.1257L76.1838 32.8268C76.6671 33.9954 77.9506 35.4313 80.0839 35.4313C82.3505 35.4313 84.2672 34.0954 84.2672 30.8401V22.9267H82.4338V23.6445ZM85.6004 31.2072H87.5337V18.2521H85.6004V31.2072ZM90.3839 26.9334C90.3338 25.2304 91.7005 24.3625 92.6837 24.3625C93.4509 24.3625 94.1006 24.7462 94.3168 25.2976L90.3839 26.9334ZM96.3838 25.4644C96.0176 24.4791 94.9003 22.6596 92.617 22.6596C90.3503 22.6596 88.4672 24.4459 88.4672 27.067C88.4672 29.5379 90.3338 31.4744 92.8336 31.4744C94.8507 31.4744 96.0176 30.2389 96.5007 29.5212L95.0007 28.5193C94.501 29.254 93.8172 29.7382 92.8336 29.7382C91.8504 29.7382 91.1506 29.2873 90.7003 28.4027L96.5835 25.9651L96.3838 25.4644ZM49.5111 24.0119V25.8817H53.9777C53.8444 26.9334 53.4944 27.7013 52.961 28.2356C52.3112 28.8869 51.2944 29.6046 49.5111 29.6046C46.761 29.6046 44.6112 27.3843 44.6112 24.6296C44.6112 21.875 46.761 19.6544 49.5111 19.6544C50.9945 19.6544 52.0776 20.2388 52.8777 20.9901L54.1943 19.6714C53.0778 18.6027 51.5942 17.7846 49.5111 17.7846C45.7443 17.7846 42.5777 20.8566 42.5777 24.6296C42.5777 28.4027 45.7443 31.4744 49.5111 31.4744C51.5446 31.4744 53.0778 30.8069 54.2776 29.5544C55.511 28.319 55.8945 26.5828 55.8945 25.1806C55.8945 24.7462 55.8613 24.3459 55.7942 24.0119H49.5111ZM60.9726 29.7382C59.639 29.7382 58.4889 28.6363 58.4889 27.067C58.4889 25.4809 59.639 24.3958 60.9726 24.3958C62.3057 24.3958 63.4558 25.4809 63.4558 27.067C63.4558 28.6363 62.3057 29.7382 60.9726 29.7382ZM60.9726 22.6596C58.5389 22.6596 56.5555 24.5127 56.5555 27.067C56.5555 29.6046 58.5389 31.4744 60.9726 31.4744C63.4057 31.4744 65.3891 29.6046 65.3891 27.067C65.3891 24.5127 63.4057 22.6596 60.9726 22.6596ZM70.6074 29.7382C69.2743 29.7382 68.1241 28.6363 68.1241 27.067C68.1241 25.4809 69.2743 24.3958 70.6074 24.3958C71.9406 24.3958 73.0907 25.4809 73.0907 27.067C73.0907 28.6363 71.9406 29.7382 70.6074 29.7382ZM70.6074 22.6596C68.1738 22.6596 66.1909 24.5127 66.1909 27.067C66.1909 29.6046 68.1738 31.4744 70.6074 31.4744C73.0406 31.4744 75.024 29.6046 75.024 27.067C75.024 24.5127 73.0406 22.6596 70.6074 22.6596Z" fill="white"/>
<path d="M10.9914 33.6833L10.9145 33.6097C10.6135 33.2906 10.4357 32.7952 10.4357 32.1536V32.3046V9.3863C10.4357 9.38422 10.4357 9.38267 10.4357 9.38101C10.4357 9.38298 10.4357 9.38464 10.4357 9.38671V9.53811C10.4357 8.84339 10.6429 8.32007 10.9901 8.00629L23.8078 20.8452L10.9914 33.6833ZM10.4357 9.37977C10.4357 9.32267 10.4373 9.26723 10.4402 9.21262C10.4373 9.26681 10.4357 9.32267 10.4357 9.37977ZM10.4402 9.21013C10.4402 9.2094 10.4402 9.20857 10.4405 9.20774C10.4402 9.20857 10.4402 9.2094 10.4402 9.21013ZM10.4405 9.20288C10.4405 9.20246 10.4405 9.20205 10.4405 9.20163C10.4405 9.20205 10.4405 9.20246 10.4405 9.20288Z" fill="url(#paint0_linear_202_14830)"/>
<path d="M28.0797 25.2781L28.1771 25.2226L33.239 22.3417C33.7216 22.0669 34.0432 21.7337 34.2037 21.3812C34.0436 21.7337 33.7219 22.0673 33.239 22.3421L28.1771 25.223L28.0797 25.2781ZM28.0809 25.1263L23.8078 20.8452L28.0805 16.5649L33.239 19.5004C33.8941 19.8733 34.2618 20.3538 34.3233 20.8448C34.3233 20.8452 34.3233 20.846 34.3233 20.8468C34.2618 21.3366 33.8941 21.8175 33.239 22.1903L28.0809 25.1263Z" fill="url(#paint1_linear_202_14830)"/>
<path d="M11.9051 34.1722C11.5471 34.1722 11.2346 34.0557 10.991 33.8355L10.9914 33.835C11.2351 34.0552 11.5479 34.1722 11.906 34.1722C11.937 34.1722 11.9685 34.1714 12.0005 34.1699C11.9681 34.1714 11.9362 34.1722 11.9051 34.1722ZM11.9055 34.0204C11.5475 34.0208 11.2351 33.9038 10.9914 33.6836V33.6833L23.8078 20.8452L28.0809 25.1263L13.0645 33.6728C12.6491 33.9087 12.2554 34.0204 11.9055 34.0204ZM10.9878 33.8327C10.9652 33.812 10.9429 33.7902 10.9211 33.7675L10.9878 33.8327Z" fill="url(#paint2_linear_202_14830)"/>
<path d="M23.8078 20.8451L10.9902 8.00615C11.2338 7.78635 11.5458 7.66977 11.9035 7.66977C12.2543 7.66977 12.6482 7.7819 13.0645 8.01827L28.0805 16.5648L23.8078 20.8451ZM28.1771 16.4681L13.0645 7.86697C12.6482 7.63049 12.2543 7.51837 11.9035 7.51837C11.9018 7.51837 11.9007 7.51837 11.899 7.51837C11.9011 7.51837 11.9026 7.51837 11.9051 7.51837C12.2551 7.51837 12.6486 7.63008 13.0645 7.86656L28.1771 16.4681Z" fill="url(#paint3_linear_202_14830)"/>
<path d="M12.0005 34.1698C12.3258 34.1511 12.6859 34.039 13.0645 33.8241L28.0797 25.278L13.0645 33.8241C12.6862 34.0394 12.3258 34.1511 12.0005 34.1698ZM10.991 33.8354L10.9878 33.8326C10.9889 33.8334 10.9902 33.8346 10.991 33.8354ZM10.9211 33.7674L10.9146 33.761V33.7606C10.917 33.763 10.919 33.7653 10.9211 33.7674Z" fill="black"/>
<path d="M28.0797 25.2781L28.1771 25.2226L28.0797 25.2781Z" fill="url(#paint4_linear_202_14830)"/>
<path d="M11.9059 34.1722C11.5479 34.1722 11.235 34.0552 10.9914 33.835L10.991 33.8355C10.9902 33.8346 10.9889 33.8335 10.9878 33.8327L10.9211 33.7675C10.919 33.7654 10.917 33.763 10.9146 33.7606L10.9914 33.6836C11.235 33.9038 11.5475 34.0208 11.9055 34.0204C12.2554 34.0204 12.649 33.9087 13.0645 33.6728L28.0809 25.1263L28.1771 25.2226L28.0797 25.2781L13.0645 33.8242C12.6859 34.0391 12.3258 34.1512 12.0005 34.1699C11.9685 34.1714 11.937 34.1722 11.9059 34.1722Z" fill="url(#paint5_linear_202_14830)"/>
<path d="M10.9145 33.761C10.6135 33.4419 10.4357 32.9465 10.4357 32.3049V32.3045C10.4357 32.9465 10.6135 33.4415 10.9145 33.7606V33.761Z" fill="black"/>
<path d="M10.9145 33.7607C10.6135 33.4417 10.4357 32.9466 10.4357 32.3047V32.1537C10.4357 32.7952 10.6135 33.2907 10.9145 33.6098L10.9914 33.6834L10.9145 33.7607Z" fill="url(#paint6_linear_202_14830)"/>
<path d="M10.9146 33.7607L10.9914 33.6834V33.6837L10.9146 33.7607Z" fill="url(#paint7_linear_202_14830)"/>
<path d="M34.2037 21.3812C34.2832 21.2063 34.3233 21.0266 34.3233 20.8468C34.3233 20.8465 34.3233 20.8461 34.3233 20.8461C34.3233 21.0262 34.2832 21.2059 34.2037 21.3812Z" fill="black"/>
<path d="M28.1771 25.2227L28.0809 25.1263L33.2389 22.1903C33.894 21.8176 34.2618 21.3366 34.3232 20.8468C34.3232 21.0266 34.2832 21.2063 34.2036 21.3812C34.0432 21.7337 33.7215 22.0669 33.2389 22.3417L28.1771 25.2227Z" fill="url(#paint8_linear_202_14830)"/>
<path d="M34.3233 20.8451V20.8447C34.3228 20.3026 33.9612 19.7606 33.239 19.3493L28.1771 16.4684H28.1767L28.1771 16.4681L33.239 19.3489C33.962 19.7602 34.3241 20.303 34.3233 20.8451Z" fill="#404040"/>
<path d="M34.3233 20.8447C34.2618 20.3537 33.894 19.8732 33.239 19.5004L28.0805 16.5648L28.1767 16.4684H28.1771L33.239 19.3494C33.9612 19.7607 34.3229 20.3027 34.3233 20.8447Z" fill="url(#paint9_linear_202_14830)"/>
<path d="M10.4357 9.38098C10.4357 9.38057 10.4357 9.38015 10.4357 9.37974C10.4357 9.38015 10.4357 9.38057 10.4357 9.38098ZM10.4402 9.21259C10.4402 9.21176 10.4402 9.21093 10.4402 9.2101C10.4402 9.21093 10.4402 9.21176 10.4402 9.21259ZM10.4405 9.20772C10.4405 9.20606 10.4405 9.2045 10.4405 9.20285C10.4405 9.2045 10.4405 9.20606 10.4405 9.20772ZM10.4405 9.2016C10.5004 8.13704 11.0783 7.52211 11.8958 7.51848C11.5413 7.52056 11.2326 7.63714 10.991 7.85527V7.85486L10.9881 7.85776C10.9626 7.88076 10.9384 7.90512 10.9145 7.9302C10.6429 8.21797 10.4716 8.64906 10.4405 9.2016Z" fill="#404040"/>
<path d="M10.4357 9.53809V9.38669C10.4357 9.38461 10.4357 9.38296 10.4357 9.38099C10.4357 9.38057 10.4357 9.38016 10.4357 9.37974C10.4357 9.32265 10.4373 9.26679 10.4402 9.21259C10.4402 9.21176 10.4402 9.21094 10.4402 9.21011C10.4402 9.20938 10.4402 9.20855 10.4405 9.20772C10.4405 9.20606 10.4405 9.20451 10.4405 9.20285C10.4405 9.20244 10.4405 9.20202 10.4405 9.20161C10.4716 8.64907 10.6429 8.21797 10.9145 7.9302L10.9901 8.00626C10.6429 8.32005 10.4357 8.84337 10.4357 9.53809ZM10.9881 7.85776L10.991 7.85486C10.9901 7.85611 10.9889 7.85693 10.9881 7.85776Z" fill="url(#paint10_linear_202_14830)"/>
<path d="M28.0805 16.5648L13.0645 8.01834C12.6482 7.78196 12.2543 7.66983 11.9035 7.66983C11.5458 7.66983 11.2338 7.78642 10.9902 8.00621L10.9146 7.93015C10.9384 7.90507 10.9627 7.88072 10.9881 7.85771C10.9889 7.85688 10.9902 7.85605 10.991 7.85522C11.2327 7.63709 11.5414 7.52051 11.8958 7.51843C11.8966 7.51843 11.8978 7.51843 11.899 7.51843C11.9007 7.51843 11.9018 7.51843 11.9035 7.51843C12.2543 7.51843 12.6482 7.63056 13.0645 7.86704L28.1771 16.4681L28.1767 16.4684L28.0805 16.5648Z" fill="url(#paint11_linear_202_14830)"/>
</g>
<defs>
<linearGradient id="paint0_linear_202_14830" x1="22.6712" y1="9.14453" x2="5.27994" y2="26.5065" gradientUnits="userSpaceOnUse">
<stop stop-color="#00A0FF"/>
<stop offset="0.00657445" stop-color="#00A1FF"/>
<stop offset="0.2601" stop-color="#00BEFF"/>
<stop offset="0.5122" stop-color="#00D2FF"/>
<stop offset="0.7604" stop-color="#00DFFF"/>
<stop offset="1" stop-color="#00E3FF"/>
</linearGradient>
<linearGradient id="paint1_linear_202_14830" x1="35.1214" y1="20.8458" x2="10.0889" y2="20.8458" gradientUnits="userSpaceOnUse">
<stop stop-color="#FFE000"/>
<stop offset="0.4087" stop-color="#FFBD00"/>
<stop offset="0.7754" stop-color="#FFA500"/>
<stop offset="1" stop-color="#FF9C00"/>
</linearGradient>
<linearGradient id="paint2_linear_202_14830" x1="25.803" y1="23.2238" x2="2.21914" y2="46.7679" gradientUnits="userSpaceOnUse">
<stop stop-color="#FF3A44"/>
<stop offset="1" stop-color="#C31162"/>
</linearGradient>
<linearGradient id="paint3_linear_202_14830" x1="7.66799" y1="0.301325" x2="18.1991" y2="10.8147" gradientUnits="userSpaceOnUse">
<stop stop-color="#32A071"/>
<stop offset="0.0685" stop-color="#2DA771"/>
<stop offset="0.4762" stop-color="#15CF74"/>
<stop offset="0.8009" stop-color="#06E775"/>
<stop offset="1" stop-color="#00F076"/>
</linearGradient>
<linearGradient id="paint4_linear_202_14830" x1="35.1214" y1="20.846" x2="10.0889" y2="20.846" gradientUnits="userSpaceOnUse">
<stop stop-color="#CCB300"/>
<stop offset="0.4087" stop-color="#CC9700"/>
<stop offset="0.7754" stop-color="#CC8400"/>
<stop offset="1" stop-color="#CC7D00"/>
</linearGradient>
<linearGradient id="paint5_linear_202_14830" x1="25.803" y1="23.2238" x2="2.21913" y2="46.7679" gradientUnits="userSpaceOnUse">
<stop stop-color="#CC2E36"/>
<stop offset="1" stop-color="#9C0E4E"/>
</linearGradient>
<linearGradient id="paint6_linear_202_14830" x1="22.6713" y1="9.14461" x2="5.27997" y2="26.5066" gradientUnits="userSpaceOnUse">
<stop stop-color="#008DE0"/>
<stop offset="0.00657445" stop-color="#008DE0"/>
<stop offset="0.2601" stop-color="#00A7E0"/>
<stop offset="0.5122" stop-color="#00B8E0"/>
<stop offset="0.7604" stop-color="#00C4E0"/>
<stop offset="1" stop-color="#00C7E0"/>
</linearGradient>
<linearGradient id="paint7_linear_202_14830" x1="25.8035" y1="23.224" x2="2.21994" y2="46.7689" gradientUnits="userSpaceOnUse">
<stop stop-color="#E0333C"/>
<stop offset="1" stop-color="#AB0F56"/>
</linearGradient>
<linearGradient id="paint8_linear_202_14830" x1="35.1214" y1="20.8458" x2="10.0888" y2="20.8458" gradientUnits="userSpaceOnUse">
<stop stop-color="#E0C500"/>
<stop offset="0.4087" stop-color="#E0A600"/>
<stop offset="0.7754" stop-color="#E09100"/>
<stop offset="1" stop-color="#E08900"/>
</linearGradient>
<linearGradient id="paint9_linear_202_14830" x1="35.1214" y1="20.8458" x2="10.0889" y2="20.8458" gradientUnits="userSpaceOnUse">
<stop stop-color="#FFE840"/>
<stop offset="0.4087" stop-color="#FFCE40"/>
<stop offset="0.7754" stop-color="#FFBC40"/>
<stop offset="1" stop-color="#FFB540"/>
</linearGradient>
<linearGradient id="paint10_linear_202_14830" x1="22.6712" y1="9.14451" x2="5.27995" y2="26.5065" gradientUnits="userSpaceOnUse">
<stop stop-color="#40B8FF"/>
<stop offset="0.00657445" stop-color="#40B9FF"/>
<stop offset="0.2601" stop-color="#40CEFF"/>
<stop offset="0.5122" stop-color="#40DDFF"/>
<stop offset="0.7604" stop-color="#40E7FF"/>
<stop offset="1" stop-color="#40EAFF"/>
</linearGradient>
<linearGradient id="paint11_linear_202_14830" x1="7.66799" y1="0.301389" x2="18.1991" y2="10.8148" gradientUnits="userSpaceOnUse">
<stop stop-color="#65B895"/>
<stop offset="0.0685" stop-color="#62BD95"/>
<stop offset="0.4762" stop-color="#50DB97"/>
<stop offset="0.8009" stop-color="#44ED98"/>
<stop offset="1" stop-color="#40F498"/>
</linearGradient>
<clipPath id="clip0_202_14830">
<rect width="140" height="41.57" fill="white"/>
</clipPath>
</defs>
</svg>
