<svg width="30" height="30" viewBox="0 0 30 30" fill="none" xmlns="http://www.w3.org/2000/svg">
<path d="M15 8.85543C16.988 8.85543 17.259 8.85543 18.0722 8.85543C18.7951 8.85543 19.1566 9.03615 19.4278 9.12651C19.7891 9.30722 20.0603 9.39759 20.3314 9.66868C20.6024 9.93976 20.7831 10.2109 20.8735 10.5723C20.9639 10.8434 21.0543 11.2048 21.1446 11.9277C21.1446 12.741 21.1446 12.9216 21.1446 15C21.1446 17.0784 21.1446 17.259 21.1446 18.0722C21.1446 18.7951 20.9639 19.1566 20.8735 19.4278C20.6927 19.7891 20.6024 20.0603 20.3314 20.3314C20.0603 20.6024 19.7891 20.7831 19.4278 20.8735C19.1566 20.9639 18.7951 21.0543 18.0722 21.1446C17.259 21.1446 17.0784 21.1446 15 21.1446C12.9216 21.1446 12.741 21.1446 11.9277 21.1446C11.2048 21.1446 10.8434 20.9639 10.5723 20.8735C10.2109 20.6927 9.93976 20.6024 9.66868 20.3314C9.39759 20.0603 9.21686 19.7891 9.12651 19.4278C9.03615 19.1566 8.94579 18.7951 8.85543 18.0722C8.85543 17.259 8.85543 17.0784 8.85543 15C8.85543 12.9216 8.85543 12.741 8.85543 11.9277C8.85543 11.2048 9.03615 10.8434 9.12651 10.5723C9.30722 10.2109 9.39759 9.93976 9.66868 9.66868C9.93976 9.39759 10.2109 9.21686 10.5723 9.12651C10.8434 9.03615 11.2048 8.94579 11.9277 8.85543C12.741 8.85543 13.012 8.85543 15 8.85543ZM15 7.5C12.9216 7.5 12.741 7.5 11.9277 7.5C11.1145 7.5 10.5723 7.68072 10.1205 7.86145C9.66867 8.04217 9.21686 8.31325 8.76506 8.76506C8.31325 9.21686 8.13252 9.57831 7.86145 10.1205C7.68072 10.5723 7.59036 11.1145 7.5 11.9277C7.5 12.741 7.5 13.012 7.5 15C7.5 17.0784 7.5 17.259 7.5 18.0722C7.5 18.8855 7.68072 19.4277 7.86145 19.8795C8.04217 20.3314 8.31325 20.7831 8.76506 21.235C9.21686 21.6868 9.57831 21.8675 10.1205 22.1385C10.5723 22.3193 11.1145 22.4096 11.9277 22.5C12.741 22.5 13.012 22.5 15 22.5C16.988 22.5 17.259 22.5 18.0722 22.5C18.8855 22.5 19.4277 22.3193 19.8795 22.1385C20.3314 21.9579 20.7831 21.6868 21.235 21.235C21.6868 20.7831 21.8675 20.4217 22.1385 19.8795C22.3193 19.4277 22.4096 18.8855 22.5 18.0722C22.5 17.259 22.5 16.988 22.5 15C22.5 13.012 22.5 12.741 22.5 11.9277C22.5 11.1145 22.3193 10.5723 22.1385 10.1205C21.9579 9.66867 21.6868 9.21686 21.235 8.76506C20.7831 8.31325 20.4217 8.13252 19.8795 7.86145C19.4277 7.68072 18.8855 7.59036 18.0722 7.5C17.259 7.5 17.0784 7.5 15 7.5Z" fill="white"/>
<path d="M15 11.1143C12.8314 11.1143 11.1145 12.8312 11.1145 14.9998C11.1145 17.1684 12.8314 18.8853 15 18.8853C17.1686 18.8853 18.8855 17.1684 18.8855 14.9998C18.8855 12.8312 17.1686 11.1143 15 11.1143ZM15 17.5299C13.6446 17.5299 12.4699 16.4455 12.4699 14.9998C12.4699 13.6444 13.5543 12.4697 15 12.4697C16.3554 12.4697 17.5301 13.554 17.5301 14.9998C17.5301 16.3552 16.3554 17.5299 15 17.5299Z" fill="white"/>
<path d="M18.9759 11.9278C19.475 11.9278 19.8795 11.5233 19.8795 11.0242C19.8795 10.5252 19.475 10.1206 18.9759 10.1206C18.4769 10.1206 18.0723 10.5252 18.0723 11.0242C18.0723 11.5233 18.4769 11.9278 18.9759 11.9278Z" fill="white"/>
</svg>
