<svg width="53" height="29" viewBox="0 0 53 29" fill="none" xmlns="http://www.w3.org/2000/svg">
<g filter="url(#filter0_d_202_141)">
<rect x="3" y="2" width="47" height="23" rx="11.5" fill="white"/>
<rect x="3.5" y="2.5" width="46" height="22" rx="11" stroke="#919191"/>
</g>
<g clip-path="url(#clip0_202_141)">
<path d="M15.5 17.5292C17.7252 17.5292 19.529 15.7254 19.529 13.5002C19.529 11.275 17.7252 9.47119 15.5 9.47119C13.2749 9.47119 11.471 11.275 11.471 13.5002C11.471 15.7254 13.2749 17.5292 15.5 17.5292Z" fill="#FFE177"/>
<path d="M19.1727 13.4999C19.1603 15.0169 18.2096 16.4309 16.7681 16.9488C16.0495 17.2061 15.2691 17.236 14.5328 17.0346C13.7966 16.8331 13.1402 16.41 12.6526 15.8227C11.6777 14.643 11.5655 12.9178 12.3495 11.6103C13.1334 10.3028 14.7137 9.58867 16.217 9.89607C17.047 10.0692 17.7928 10.521 18.3305 11.1766C18.8682 11.8322 19.1654 12.652 19.1727 13.4999C19.1765 13.9583 19.8892 13.9593 19.8854 13.4999C19.8775 12.5995 19.5961 11.7227 19.0785 10.9859C18.5609 10.2491 17.8315 9.68709 16.9871 9.37439C15.2729 8.74296 13.2565 9.30217 12.1091 10.7209C10.9617 12.1396 10.7887 14.1726 11.7337 15.7491C12.684 17.3355 14.564 18.1541 16.3747 17.7973C18.4058 17.3958 19.8711 15.5505 19.8854 13.4999C19.8892 13.0414 19.1765 13.0409 19.1727 13.4999Z" fill="#FFE177"/>
<path d="M15.8563 7.86461V6.34422C15.8563 5.88573 15.1436 5.88478 15.1436 6.34422V7.86461C15.1436 8.3231 15.8563 8.32405 15.8563 7.86461Z" fill="#FFE177"/>
<path d="M12.99 8.4396L12.2298 7.12399C12.0003 6.72679 11.3845 7.08551 11.6121 7.48366L12.3723 8.79926C12.6018 9.19646 13.2175 8.83775 12.99 8.4396Z" fill="#FFE177"/>
<path d="M10.7992 10.3747L9.48356 9.61453C9.08541 9.38457 8.72622 10.0003 9.1239 10.2322L10.4395 10.9924C10.8377 11.2223 11.1968 10.6066 10.7992 10.3747Z" fill="#FFE177"/>
<path d="M9.86461 13.1436H8.34422C7.88573 13.1436 7.88478 13.8562 8.34422 13.8562H9.86461C10.3231 13.8562 10.324 13.1436 9.86461 13.1436Z" fill="#FFE177"/>
<path d="M10.4395 16.0096L9.1239 16.7698C8.7267 16.9993 9.08542 17.615 9.48357 17.3875L10.7992 16.6273C11.1964 16.3978 10.8377 15.782 10.4395 16.0096Z" fill="#FFE177"/>
<path d="M12.3747 18.2009L11.6145 19.5165C11.3845 19.9146 12.0003 20.2738 12.2321 19.8761L12.9923 18.5605C13.2223 18.1624 12.6065 17.8032 12.3747 18.2009Z" fill="#FFE177"/>
<path d="M15.1436 19.1352V20.6556C15.1436 21.1141 15.8563 21.1151 15.8563 20.6556V19.1352C15.8563 18.6767 15.1436 18.6758 15.1436 19.1352Z" fill="#FFE177"/>
<path d="M18.0101 18.5603L18.7703 19.8759C18.9997 20.2731 19.6155 19.9144 19.3879 19.5163L18.6277 18.2007C18.3982 17.8035 17.7825 18.1622 18.0101 18.5603Z" fill="#FFE177"/>
<path d="M20.2009 16.6252L21.5165 17.3854C21.9146 17.6154 22.2738 16.9996 21.8761 16.7678L20.5605 16.0076C20.1624 15.7776 19.8032 16.3934 20.2009 16.6252Z" fill="#FFE177"/>
<path d="M21.1354 13.8562H22.6558C23.1143 13.8562 23.1152 13.1436 22.6558 13.1436H21.1354C20.6769 13.1436 20.676 13.8562 21.1354 13.8562Z" fill="#FFE177"/>
<path d="M20.5605 10.99L21.8761 10.2298C22.2733 10.0003 21.9146 9.38456 21.5164 9.61214L20.2008 10.3723C19.8036 10.6018 20.1624 11.2176 20.5605 10.99Z" fill="#FFE177"/>
<path d="M18.6253 8.7985L19.3855 7.48289C19.6155 7.08474 18.9997 6.72555 18.7679 7.12323L18.0077 8.43883C17.7777 8.83698 18.3935 9.19617 18.6253 8.7985Z" fill="#FFE177"/>
</g>
<defs>
<filter id="filter0_d_202_141" x="0" y="0" width="53" height="29" filterUnits="userSpaceOnUse" color-interpolation-filters="sRGB">
<feFlood flood-opacity="0" result="BackgroundImageFix"/>
<feColorMatrix in="SourceAlpha" type="matrix" values="0 0 0 0 0 0 0 0 0 0 0 0 0 0 0 0 0 0 127 0" result="hardAlpha"/>
<feOffset dy="1"/>
<feGaussianBlur stdDeviation="1.5"/>
<feComposite in2="hardAlpha" operator="out"/>
<feColorMatrix type="matrix" values="0 0 0 0 0 0 0 0 0 0 0 0 0 0 0 0 0 0 0.25 0"/>
<feBlend mode="normal" in2="BackgroundImageFix" result="effect1_dropShadow_202_141"/>
<feBlend mode="normal" in="SourceGraphic" in2="effect1_dropShadow_202_141" result="shape"/>
</filter>
<clipPath id="clip0_202_141">
<rect width="16" height="16" fill="white" transform="translate(8 5)"/>
</clipPath>
</defs>
</svg>
