<svg width="17" height="17" viewBox="0 0 17 17" fill="none" xmlns="http://www.w3.org/2000/svg">
<g clip-path="url(#clip0_848_230)">
<path d="M15.6525 16.9918C15.6383 15.2918 15.1092 13.7721 14.0217 12.4656C12.8141 11.0144 11.2707 10.132 9.38346 9.90524C7.20234 9.64361 5.2831 10.2527 3.65527 11.7263C2.32008 12.9366 1.56394 14.448 1.35526 16.2326C1.32617 16.4838 1.32741 16.7384 1.31369 16.9918H-0.0131836V16.4942C0.0304637 16.1708 0.0628874 15.8391 0.119837 15.5165C0.43285 13.7336 1.24718 12.211 2.53582 10.9422C3.39612 10.0926 4.43163 9.44004 5.57035 9.02995C5.60526 9.0171 5.63852 8.99927 5.68715 8.97729C4.30291 7.9378 3.55841 6.57905 3.58086 4.85127C3.59832 3.52444 4.09881 2.37632 5.05157 1.44878C7.05934 -0.506636 10.1371 -0.361514 11.989 1.5118C14.0504 3.59949 13.8608 7.19976 11.3168 8.95615C14.8556 10.4704 16.8455 13.0772 16.9802 16.9905L15.6525 16.9918ZM8.48682 1.36834C6.52019 1.36544 4.9119 2.9651 4.89942 4.93171C4.88695 6.89832 6.50565 8.51539 8.48017 8.51829C10.4468 8.52119 12.0572 6.92154 12.0676 4.95451C12.078 2.98749 10.4613 1.36834 8.48682 1.36834Z" fill="#7F7F7F"/>
</g>
<defs>
<clipPath id="clip0_848_230">
<rect width="17" height="17" fill="white"/>
</clipPath>
</defs>
</svg>
