<svg width="20" height="20" viewBox="0 0 20 20" fill="none" xmlns="http://www.w3.org/2000/svg">
<path d="M4.3077 19.3659C4.11208 19.2971 3.90619 19.2532 3.72867 19.1546C3.15306 18.8356 2.85426 18.3303 2.85279 17.6766C2.8466 14.7683 2.8466 11.86 2.85279 8.95172C2.85279 7.99513 3.58 7.29318 4.53951 7.27416C4.70383 7.27074 4.86815 7.27416 5.05398 7.27416C5.0579 7.20001 5.06425 7.13562 5.06474 7.07123C5.06474 6.55416 5.05741 6.0366 5.06914 5.52001C5.13517 2.71757 7.45617 0.555134 10.2653 0.674646C12.6273 0.775134 14.6627 2.6366 14.9195 4.97465C14.9933 5.64879 14.9572 6.33513 14.9713 7.01611C14.9713 7.09367 14.9713 7.17123 14.9713 7.27318H15.4237C16.4796 7.27855 17.1843 7.98587 17.1867 9.04294C17.1867 11.8907 17.1867 14.7382 17.1867 17.5854C17.1867 18.5122 16.6854 19.1351 15.7773 19.3415C15.76 19.3475 15.7436 19.3557 15.7284 19.3659H4.3077ZM10.0188 18.2703H15.3983C15.8692 18.2703 16.0883 18.0498 16.0883 17.5751C16.0883 14.7342 16.0883 11.8929 16.0883 9.05123C16.0883 8.58782 15.8697 8.36831 15.4066 8.36831H4.629C4.16588 8.36831 3.94825 8.58782 3.94776 9.05123V17.5761C3.94776 18.0507 4.16686 18.2703 4.63878 18.2703H10.0188ZM13.892 7.2683C13.872 6.52099 13.9111 5.78538 13.8216 5.06587C13.5771 3.09513 11.8028 1.66928 9.79724 1.77269C7.82345 1.87513 6.22329 3.50782 6.1695 5.4844C6.15434 6.03806 6.16461 6.59221 6.16461 7.14587C6.16754 7.18457 6.17392 7.22293 6.18368 7.2605H7.26202V7.04831C7.26202 6.45806 7.25224 5.86733 7.26643 5.27757C7.28037 4.78163 7.44284 4.3012 7.7329 3.89816C8.02296 3.49512 8.42734 3.18792 8.89397 3.01611C9.31601 2.85904 9.75322 2.86148 10.1934 2.86294C11.6869 2.86733 12.7677 3.93611 12.7745 5.42587C12.777 5.97367 12.7745 6.52099 12.7745 7.06879C12.7745 7.13367 12.7804 7.19806 12.7838 7.2683H13.892ZM11.6732 7.2644C11.6732 6.60001 11.685 5.94977 11.6698 5.3005C11.6644 4.98404 11.5476 4.67953 11.34 4.44021C11.1323 4.20089 10.8469 4.04197 10.5337 3.99123C10.3078 3.95269 10.0726 3.96099 9.84174 3.9605C8.95461 3.9605 8.36531 4.54587 8.36042 5.43367C8.36042 5.92635 8.36042 6.41904 8.36042 6.91123V7.2644H11.6732Z" fill="#7F7F7F"/>
<path d="M9.46957 14.8064C9.46957 14.5508 9.46174 14.2952 9.4725 14.0401C9.47788 13.9118 9.43142 13.8552 9.31748 13.7986C8.72818 13.5059 8.39465 13.0284 8.37362 12.3689C8.3521 11.6937 8.65873 11.1815 9.25048 10.8606C9.44345 10.7573 9.65514 10.6935 9.87315 10.6729C10.0912 10.6522 10.3111 10.6752 10.5201 10.7405C10.7291 10.8057 10.9229 10.9119 11.0902 11.0529C11.2576 11.1938 11.395 11.3666 11.4945 11.5612C11.594 11.7558 11.6535 11.9682 11.6697 12.1861C11.6858 12.4039 11.6582 12.6228 11.5884 12.8298C11.5187 13.0369 11.4082 13.228 11.2634 13.3919C11.1187 13.5558 10.9426 13.6893 10.7455 13.7845C10.5988 13.8542 10.5601 13.9308 10.5636 14.0835C10.5743 14.5713 10.5685 15.0591 10.5675 15.544C10.5675 15.9157 10.3464 16.1586 10.0149 16.1567C9.68328 16.1547 9.47055 15.9128 9.46957 15.5367C9.46859 15.2932 9.46957 15.0498 9.46957 14.8064ZM10.5694 12.3186C10.5667 12.1755 10.5082 12.0391 10.4062 11.9384C10.3043 11.8377 10.167 11.7806 10.0235 11.7793C9.88005 11.778 9.74171 11.8325 9.6379 11.9313C9.5341 12.0301 9.47301 12.1654 9.46761 12.3084C9.46484 12.3818 9.47687 12.4551 9.50297 12.5238C9.52908 12.5925 9.56874 12.6554 9.61961 12.7085C9.67049 12.7617 9.73153 12.8042 9.79914 12.8334C9.86675 12.8627 9.93955 12.8781 10.0132 12.8788C10.0869 12.8795 10.16 12.8654 10.2282 12.8374C10.2963 12.8094 10.3581 12.7681 10.41 12.7159C10.4618 12.6637 10.5027 12.6016 10.5301 12.5334C10.5574 12.4651 10.5708 12.3921 10.5694 12.3186V12.3186Z" fill="#7F7F7F"/>
</svg>
