<svg width="30" height="30" viewBox="0 0 30 30" fill="none" xmlns="http://www.w3.org/2000/svg">
<path d="M14.9322 23.504C13.3823 23.4796 11.7984 23.2921 10.2821 22.7045C9.62928 22.4513 9.01741 22.126 8.53514 21.6015C8.1745 21.21 7.98595 20.7538 8.00082 20.2161C8.05074 18.3565 8.71891 16.7571 10.0191 15.4236C10.2927 15.1428 10.6783 15.1259 10.9412 15.3749C11.2041 15.6239 11.2121 16.0175 10.9263 16.3094C10.0688 17.1683 9.51128 18.2797 9.3361 19.4792C9.30157 19.7075 9.29785 19.9395 9.27236 20.1679C9.24102 20.4519 9.36478 20.6664 9.56449 20.8497C9.95222 21.2063 10.4201 21.4219 10.9093 21.5951C12.4698 22.1482 14.0861 22.2839 15.7262 22.2113C16.8756 22.1615 18.0101 22.0025 19.0904 21.5893C19.4946 21.4267 19.8833 21.2283 20.252 20.9965C20.6111 20.7787 20.7635 20.4503 20.7269 20.0052C20.61 18.5875 20.0895 17.3563 19.0931 16.3364C18.9279 16.1674 18.8068 15.9862 18.8366 15.7415C18.8461 15.6217 18.891 15.5074 18.9657 15.413C19.0404 15.3187 19.1415 15.2487 19.2562 15.2117C19.5127 15.1195 19.7395 15.1852 19.9302 15.3738C20.7748 16.2028 21.3913 17.2348 21.7201 18.3703C21.8914 18.9678 21.9851 19.5847 21.9989 20.206C22.0186 20.8322 21.7626 21.3324 21.3175 21.7498C20.7332 22.2961 20.0252 22.6171 19.2785 22.8624C17.8895 23.3254 16.4528 23.4881 14.9322 23.504Z" fill="white"/>
<path d="M10.5466 11.4439C10.5407 9.00686 12.5373 7.00584 14.9757 7.00001C17.4721 6.99419 19.4532 8.98037 19.4537 11.4921C19.4537 13.8868 17.4354 15.8857 15.0155 15.8846C13.8326 15.8866 12.6974 15.4199 11.8593 14.5871C11.0213 13.7544 10.5491 12.6238 10.5466 11.4439V11.4439ZM11.8213 11.4301C11.8213 13.1832 13.2378 14.6131 14.9784 14.6168C15.3986 14.6198 15.8152 14.5398 16.2042 14.3813C16.5932 14.2229 16.9469 13.9891 17.2449 13.6936C17.5429 13.398 17.7792 13.0466 17.9402 12.6594C18.1013 12.2723 18.1839 11.8572 18.1832 11.4381C18.1832 9.68976 16.7529 8.27045 14.9869 8.27151C13.2527 8.27045 11.8192 9.70035 11.8192 11.428L11.8213 11.4301Z" fill="white"/>
</svg>
