<svg width="19" height="19" viewBox="0 0 19 19" fill="none" xmlns="http://www.w3.org/2000/svg">
<path d="M2.7016 8.82082C2.65839 4.6334 5.47336 2.05497 8.75014 2.24358C13.3162 2.5054 15.6823 7.29109 13.4109 11.0758C13.1573 11.498 13.2251 11.7162 13.5392 12.0226C14.8874 13.3439 16.2248 14.6761 17.5514 16.019C18.0397 16.5112 17.8952 17.2058 17.2889 17.3736C16.8773 17.4881 16.6217 17.2202 16.3709 16.9704C15.0616 15.6636 13.745 14.366 12.4581 13.0411C12.1328 12.707 11.9136 12.6931 11.5196 12.9383C9.57851 14.1473 7.55521 14.1431 5.59834 13.0495C3.68515 11.9804 2.77129 10.2416 2.7016 8.82082ZM4.22407 8.00892C4.21385 10.2769 5.90033 12.2853 8.47882 12.2913C10.9486 12.2974 12.6955 10.4493 12.7531 8.08538C12.7995 6.05609 11.2701 3.78814 8.52992 3.77006C5.97187 3.75384 4.22779 5.7785 4.22407 8.00892Z" fill="white"/>
</svg>
