<svg width="21" height="22" viewBox="0 0 21 22" fill="none" xmlns="http://www.w3.org/2000/svg">
<path d="M0.0368652 17.922C2.36609 18.1366 4.44422 17.5501 6.32618 16.0713C4.35897 15.8845 3.05058 14.85 2.31834 12.9328C2.97459 13.0154 3.58257 13.0321 4.21314 12.8485C1.87005 12.2363 0.772707 10.0985 0.837922 8.39488C1.42639 8.69966 2.02924 8.91 2.74711 8.92503C1.66876 8.10513 1.05256 7.05449 0.891839 5.73825C0.77014 4.75683 0.960134 3.82478 1.44539 2.94264C3.77359 5.80478 6.71233 7.38449 10.3186 7.63669C10.2149 7.06503 10.1998 6.47965 10.274 5.90298C10.4886 4.23956 11.7908 2.6942 13.3483 2.27942C14.9449 1.85516 16.3461 2.23166 17.5518 3.40893C17.5883 3.43951 17.6304 3.46191 17.6755 3.47474C17.7207 3.48757 17.7679 3.49056 17.8142 3.48352C18.6448 3.30654 19.444 2.99534 20.1829 2.56113C20.2343 2.53054 20.2902 2.50747 20.3827 2.45649C20.0556 3.50605 19.444 4.27552 18.6147 4.88078C19.4193 4.80137 20.1768 4.55883 20.9152 4.24547L20.9604 4.29913C20.6137 4.72195 20.283 5.16356 19.9154 5.56439C19.6227 5.88152 19.2766 6.14391 18.9649 6.44278C18.8902 6.51612 18.8439 6.61564 18.835 6.72234C18.8299 11.3552 17.0829 15.0775 13.473 17.7905C11.95 18.935 10.2108 19.5542 8.35091 19.8086C6.5932 20.049 4.85912 19.9336 3.15688 19.4212C2.08644 19.0984 1.06469 18.6201 0.121592 18.0003C0.091853 17.976 0.0635582 17.9498 0.0368652 17.922Z" fill="white"/>
</svg>
